<svg width="334" height="271" viewBox="0 0 334 271" fill="none" xmlns="http://www.w3.org/2000/svg">
<g filter="url(#filter0_d_312_1529)">
<rect x="113.853" y="104.217" width="96.2188" height="96.2188" rx="17.1056" fill="url(#paint0_radial_312_1529)"/>
<rect x="114.12" y="104.484" width="95.6843" height="95.6843" rx="16.8383" stroke="black" stroke-width="0.534549"/>
</g>
<path d="M186.577 164.306C183.731 165.789 168.987 171.852 165.848 173.488C162.709 175.125 160.965 175.109 158.485 173.924C156.006 172.738 140.315 166.4 137.489 165.049C136.076 164.374 135.333 163.804 135.333 163.266V157.875C135.333 157.875 155.761 153.428 159.058 152.245C162.356 151.062 163.5 151.019 166.306 152.047C169.113 153.075 185.893 156.103 188.667 157.119L188.666 162.433C188.666 162.966 188.026 163.551 186.577 164.306Z" fill="#912626"/>
<path d="M186.576 158.945C183.73 160.428 168.986 166.491 165.847 168.127C162.709 169.764 160.965 169.748 158.485 168.563C156.006 167.378 140.316 161.039 137.489 159.689C134.663 158.338 134.604 157.408 137.38 156.321C140.157 155.233 155.76 149.112 159.058 147.928C162.356 146.746 163.5 146.703 166.306 147.731C169.113 148.759 183.768 154.592 186.542 155.608C189.316 156.625 189.422 157.462 186.576 158.945Z" fill="#C6302B"/>
<path d="M186.577 155.583C183.731 157.067 168.987 163.129 165.848 164.766C162.709 166.402 160.965 166.386 158.485 165.201C156.006 164.016 140.315 157.677 137.489 156.326C136.076 155.651 135.333 155.082 135.333 154.544V149.152C135.333 149.152 155.761 144.706 159.058 143.522C162.356 142.339 163.5 142.296 166.306 143.325C169.113 144.353 185.893 147.38 188.667 148.396L188.666 153.711C188.666 154.243 188.026 154.828 186.577 155.583Z" fill="#912626"/>
<path d="M186.576 150.223C183.73 151.706 168.986 157.768 165.847 159.405C162.709 161.041 160.965 161.025 158.485 159.84C156.006 158.655 140.316 152.316 137.489 150.966C134.663 149.615 134.604 148.685 137.38 147.598C140.157 146.511 155.761 140.389 159.058 139.206C162.356 138.023 163.5 137.98 166.306 139.008C169.113 140.036 183.768 145.869 186.542 146.885C189.316 147.902 189.422 148.739 186.576 150.223Z" fill="#C6302B"/>
<path d="M186.577 146.536C183.731 148.019 168.987 154.082 165.848 155.719C162.709 157.355 160.965 157.339 158.485 156.154C156.006 154.969 140.315 148.63 137.489 147.28C136.076 146.604 135.333 146.035 135.333 145.497V140.105C135.333 140.105 155.761 135.658 159.058 134.476C162.356 133.292 163.5 133.25 166.306 134.278C169.113 135.306 185.893 138.333 188.667 139.349L188.666 144.664C188.666 145.196 188.026 145.781 186.577 146.536Z" fill="#912626"/>
<path d="M186.576 141.178C183.73 142.661 168.986 148.723 165.847 150.36C162.709 151.996 160.965 151.98 158.485 150.795C156.006 149.61 140.316 143.271 137.49 141.921C134.663 140.57 134.604 139.64 137.38 138.553C140.156 137.466 155.76 131.344 159.058 130.161C162.356 128.978 163.5 128.935 166.306 129.963C169.113 130.992 183.768 136.825 186.541 137.841C189.316 138.857 189.422 139.694 186.576 141.178Z" fill="#C6302B"/>
<path d="M168.517 135.933L163.932 136.409L162.905 138.879L161.248 136.123L155.953 135.647L159.904 134.222L158.718 132.035L162.417 133.482L165.904 132.34L164.962 134.602L168.517 135.933ZM162.632 147.916L154.074 144.367L166.336 142.484L162.632 147.916ZM150.767 137.306C154.387 137.306 157.321 138.443 157.321 139.846C157.321 141.25 154.387 142.387 150.767 142.387C147.147 142.387 144.213 141.25 144.213 139.846C144.213 138.443 147.147 137.306 150.767 137.306Z" fill="white"/>
<path d="M173.937 136.608L181.194 139.476L173.943 142.341L173.937 136.607" fill="#621B1C"/>
<path d="M165.907 139.785L173.936 136.609L173.943 142.343L173.155 142.65L165.907 139.785Z" fill="#9A2928"/>
<g filter="url(#filter1_d_312_1529)">
<rect x="38.8525" y="20.2168" width="96.2188" height="96.2188" rx="17.1056" fill="url(#paint1_radial_312_1529)"/>
<rect x="39.1198" y="20.4841" width="95.6843" height="95.6843" rx="16.8383" stroke="black" stroke-width="0.534549"/>
</g>
<path d="M109.459 82.5317C106.557 82.4583 104.308 82.7529 102.422 83.5628C101.878 83.7835 101.007 83.7838 100.935 84.4834C101.225 84.778 101.261 85.2567 101.515 85.6616C101.951 86.3979 102.712 87.3921 103.401 87.9079C104.163 88.4969 104.925 89.0858 105.723 89.6014C107.137 90.4852 108.734 91.0005 110.112 91.8843C110.91 92.3994 111.708 93.0627 112.506 93.6148C112.905 93.909 113.159 94.3881 113.667 94.5721V94.4618C113.413 94.1302 113.34 93.6517 113.086 93.2834C112.724 92.9152 112.361 92.5837 111.998 92.2155C110.946 90.7798 109.64 89.5277 108.226 88.4969C107.065 87.6867 104.526 86.5822 104.054 85.2197C104.054 85.2197 104.018 85.1831 103.982 85.1463C104.78 85.0726 105.723 84.778 106.485 84.5571C107.718 84.2254 108.842 84.2993 110.112 83.9679C110.692 83.8206 111.273 83.6365 111.853 83.4523V83.1211C111.2 82.4583 110.729 81.5747 110.039 80.9487C108.19 79.3282 106.158 77.7452 104.054 76.4197C102.93 75.6832 101.479 75.2045 100.282 74.5787C99.8467 74.3575 99.121 74.2473 98.8673 73.879C98.2141 73.0691 97.8513 72.0014 97.3799 71.044C96.3282 69.0186 95.3123 66.7727 94.4053 64.6373C93.7528 63.2012 93.3537 61.765 92.5556 60.4398C88.8194 54.1803 84.7568 50.3878 78.5178 46.6687C77.1756 45.8956 75.5796 45.5642 73.8747 45.1593C72.9682 45.1223 72.0611 45.0488 71.1543 45.0118C70.5739 44.754 69.9935 44.0546 69.4856 43.7232C67.4184 42.3975 62.0858 39.5258 60.5623 43.3183C59.5828 45.7115 62.0134 48.0678 62.8474 49.2832C63.4645 50.13 64.2622 51.0872 64.6976 52.0446C64.9515 52.6702 65.0239 53.3335 65.2778 53.9961C65.8584 55.6158 66.4022 57.4204 67.1642 58.9302C67.5633 59.7033 67.9984 60.5132 68.5063 61.2129C68.7965 61.6177 69.3042 61.8021 69.4132 62.4647C68.9056 63.2012 68.8691 64.3059 68.5786 65.2263C67.2729 69.3871 67.7809 74.5419 69.6307 77.5979C70.2109 78.5181 71.5895 80.5438 73.4394 79.7703C75.0719 79.1077 74.7091 77.0089 75.1803 75.1679C75.2896 74.7256 75.217 74.4314 75.4345 74.1368V74.2107C75.9424 75.2413 76.45 76.2358 76.9216 77.2667C78.0462 79.0706 80.0048 80.9487 81.6371 82.2007C82.508 82.8631 83.197 84.0047 84.2854 84.4098V84.2991H84.2126C83.9949 83.9677 83.6684 83.8206 83.3784 83.5626C82.7256 82.9002 81.9999 82.09 81.4922 81.3535C79.969 79.2914 78.6265 77.0087 77.4295 74.6521C76.8493 73.511 76.3412 72.259 75.8698 71.1176C75.6519 70.6753 75.6519 70.0129 75.2894 69.7921C74.7452 70.6021 73.9473 71.3017 73.5482 72.2958C72.8594 73.879 72.7866 75.8305 72.5327 77.8554C72.3876 77.8927 72.4599 77.8554 72.3874 77.9295C71.2269 77.6345 70.8278 76.4197 70.3923 75.3886C69.304 72.7745 69.1226 68.5769 70.066 65.5577C70.32 64.7844 71.4083 62.3544 70.973 61.618C70.7553 60.9183 70.0295 60.5132 69.6307 59.9611C69.1593 59.2614 68.6512 58.378 68.3249 57.6045C67.4542 55.5425 67.0189 53.2596 66.0759 51.1977C65.6406 50.2402 64.8792 49.2464 64.2622 48.3626C63.5732 47.3686 62.8113 46.6687 62.2672 45.4905C62.086 45.0857 61.8318 44.4228 62.1221 43.9809C62.1946 43.6863 62.3395 43.5761 62.63 43.5024C63.1016 43.0971 64.4438 43.6127 64.915 43.8336C66.2573 44.3856 67.3817 44.9015 68.5063 45.6746C69.014 46.0429 69.5581 46.7426 70.2109 46.9267H70.9727C72.1336 47.1842 73.4392 47.0003 74.5275 47.3315C76.4502 47.9573 78.1911 48.878 79.7511 49.8722C84.503 52.9282 88.4202 57.2731 91.0684 62.4647C91.5037 63.3112 91.6849 64.085 92.084 64.9683C92.846 66.7727 93.789 68.6138 94.5504 70.3811C95.3123 72.1114 96.0376 73.879 97.1259 75.3152C97.6701 76.0881 99.8463 76.4933 100.826 76.8984C101.551 77.2296 102.676 77.5244 103.329 77.9293C104.562 78.7022 105.795 79.5864 106.956 80.4329C107.537 80.8748 109.35 81.7954 109.459 82.5317Z" fill="white"/>
<path d="M72.4596 50.5352C71.8431 50.5352 71.408 50.6092 70.9727 50.7195V50.7931H71.0452C71.3356 51.3823 71.8431 51.7874 72.2057 52.3027C72.4961 52.8917 72.7498 53.4811 73.0403 54.0703C73.0763 54.0333 73.1126 53.9967 73.1126 53.9967C73.6207 53.6282 73.8744 53.0392 73.8744 52.1554C73.6568 51.8979 73.6205 51.6401 73.4391 51.3823C73.2217 51.0139 72.7498 50.83 72.4596 50.5352Z" fill="white"/>
<g filter="url(#filter2_d_312_1529)">
<rect x="216.184" y="66.2168" width="96.2188" height="96.2188" rx="17.1056" fill="url(#paint2_radial_312_1529)"/>
<rect x="216.451" y="66.4841" width="95.6843" height="95.6843" rx="16.8383" stroke="black" stroke-width="0.534549"/>
</g>
<path d="M263.834 87.4785L265.257 90.1516C265.577 90.6449 265.923 91.0816 266.332 91.4882C267.529 92.6703 268.645 93.932 269.672 95.2646C272.083 98.431 273.71 101.947 274.871 105.75C275.568 108.074 275.946 110.457 275.974 112.867C276.091 120.071 273.621 126.257 268.642 131.399C267.832 132.214 266.957 132.962 266.025 133.635C265.532 133.635 265.298 133.257 265.095 132.908C264.725 132.263 264.478 131.553 264.369 130.817C264.194 129.945 264.079 129.074 264.135 128.174V127.767C264.095 127.681 263.66 87.6835 263.834 87.4785Z" fill="#599636"/>
<path d="M263.833 87.3894C263.775 87.2727 263.717 87.361 263.658 87.4177C263.687 88.001 263.483 88.5209 263.165 89.0176C262.815 89.5109 262.352 89.8892 261.887 90.2958C259.304 92.5323 257.271 95.2338 255.642 98.2552C253.476 102.322 252.359 106.68 252.043 111.268C251.898 112.922 252.566 118.762 253.088 120.447C254.511 124.92 257.067 128.668 260.379 131.921C261.192 132.704 262.062 133.431 262.962 134.129C263.223 134.129 263.252 133.896 263.312 133.723C263.426 133.352 263.514 132.973 263.573 132.589L264.157 128.233L263.833 87.3894Z" fill="#6CAC48"/>
<path d="M265.257 135.406C265.315 134.739 265.635 134.186 265.983 133.634C265.633 133.489 265.373 133.201 265.17 132.879C264.995 132.575 264.85 132.254 264.737 131.921C264.33 130.701 264.243 129.421 264.127 128.175V127.42C263.982 127.537 263.952 128.523 263.952 128.67C263.867 129.987 263.692 131.298 263.429 132.591C263.342 133.114 263.284 133.636 262.962 134.101C262.962 134.159 262.962 134.218 262.99 134.304C263.514 135.844 263.657 137.412 263.745 139.011V139.594C263.745 140.291 263.717 140.144 264.295 140.377C264.528 140.464 264.788 140.494 265.022 140.667C265.197 140.667 265.225 140.522 265.225 140.406L265.138 139.447V136.774C265.11 136.308 265.197 135.844 265.255 135.408L265.257 135.406Z" fill="#C2BFBF"/>
<g filter="url(#filter3_d_312_1529)">
<rect x="22.2393" y="151.217" width="96.2188" height="96.2188" rx="17.1056" fill="url(#paint3_radial_312_1529)"/>
<rect x="22.5065" y="151.484" width="95.6843" height="95.6843" rx="16.8383" stroke="black" stroke-width="0.534549"/>
</g>
<path d="M95.6571 204.28C95.347 203.338 94.5348 202.682 93.4844 202.525C92.9891 202.451 92.4219 202.482 91.7506 202.621C90.5806 202.863 89.7126 202.955 89.0792 202.973C91.4702 198.925 93.4145 194.309 94.5338 189.963C96.3437 182.937 95.3765 179.736 94.2463 178.288C91.2553 174.455 86.8915 172.397 81.627 172.334C78.8186 172.299 76.3532 172.855 75.067 173.255C73.8696 173.043 72.582 172.925 71.2311 172.903C68.6986 172.862 66.461 173.416 64.5491 174.554C63.4906 174.195 61.7918 173.689 59.83 173.366C55.2159 172.606 51.4971 173.198 48.777 175.125C45.4832 177.458 43.9562 181.512 44.2386 187.173C44.3283 188.971 45.3311 194.44 46.9099 199.627C47.8173 202.608 48.7849 205.084 49.7858 206.986C51.2052 209.683 52.724 211.271 54.4291 211.841C55.3848 212.161 57.1212 212.384 58.9475 210.859C59.179 211.14 59.4878 211.419 59.8977 211.679C60.4182 212.008 61.0547 212.277 61.6904 212.436C63.9813 213.011 66.1271 212.867 67.9579 212.062C67.9692 212.389 67.9779 212.701 67.9851 212.97C67.9972 213.407 68.0094 213.835 68.0253 214.236C68.1338 216.945 68.3176 219.051 68.8622 220.525C68.8921 220.606 68.9323 220.73 68.9747 220.861C69.2464 221.695 69.7007 223.091 70.8566 224.185C72.0534 225.318 73.5011 225.665 74.8271 225.665C75.492 225.665 76.1265 225.578 76.683 225.458C78.6667 225.032 80.9196 224.383 82.5493 222.056C84.0902 219.856 84.8392 216.543 84.9747 211.322C84.9923 211.174 85.0085 211.033 85.024 210.899L85.0563 210.623L85.4193 210.655L85.5129 210.661C87.5333 210.754 90.0037 210.324 91.5209 209.617C92.7198 209.06 96.5616 207.026 95.6571 204.28Z" fill="black"/>
<path d="M92.2025 204.815C86.1951 206.058 85.782 204.018 85.782 204.018C92.1248 194.58 94.7764 182.6 92.4884 179.668C86.2458 171.67 75.4398 175.453 75.2594 175.551L75.2014 175.561C74.0145 175.314 72.6863 175.167 71.1933 175.143C68.4752 175.098 66.4132 175.857 64.8485 177.047C64.8485 177.047 45.5716 169.084 46.4683 187.063C46.659 190.887 51.9353 216.003 58.2284 208.417C60.5285 205.643 62.7511 203.297 62.7511 203.297C63.8549 204.032 65.1764 204.408 66.5617 204.273L66.6693 204.181C66.6358 204.526 66.6512 204.863 66.7124 205.261C65.0911 207.078 65.5676 207.397 62.3267 208.066C59.0473 208.743 60.9737 209.95 62.2316 210.265C63.7565 210.648 67.2842 211.189 69.6678 207.843L69.5729 208.225C70.208 208.735 70.654 211.544 70.5793 214.09C70.5045 216.635 70.4546 218.383 70.955 219.748C71.4557 221.114 71.9545 224.185 76.215 223.27C79.7749 222.505 81.6198 220.523 81.8765 217.216C82.0585 214.865 82.4708 215.212 82.4966 213.11L82.8273 212.115C83.2085 208.929 82.8879 207.9 85.081 208.379L85.6143 208.426C87.2283 208.499 89.3412 208.165 90.5813 207.587C93.2513 206.345 94.835 204.27 92.2021 204.815H92.2025Z" fill="#336791"/>
<path d="M65.977 188.772C65.4357 188.697 64.9454 188.767 64.6974 188.955C64.558 189.061 64.5148 189.184 64.503 189.268C64.4719 189.492 64.6283 189.74 64.7244 189.867C64.9963 190.229 65.3935 190.477 65.7866 190.532C65.8435 190.54 65.9003 190.543 65.9566 190.543C66.6121 190.543 67.2082 190.031 67.2608 189.654C67.3264 189.181 66.6414 188.865 65.977 188.773V188.772ZM83.9114 188.787C83.8597 188.416 83.2016 188.311 82.577 188.398C81.9532 188.485 81.3484 188.767 81.3989 189.139C81.4393 189.428 81.9599 189.921 82.576 189.921C82.6281 189.921 82.6806 189.918 82.7336 189.911C83.1448 189.853 83.4466 189.592 83.59 189.441C83.8082 189.211 83.9346 188.954 83.9114 188.787Z" fill="white"/>
<path d="M94.2014 204.672C93.9723 203.978 93.235 203.754 92.0101 204.008C88.3731 204.761 87.0706 204.239 86.6429 203.923C89.4699 199.605 91.7956 194.384 93.0502 189.514C93.6445 187.207 93.9727 185.064 93.9996 183.318C94.0293 181.401 93.7037 179.992 93.0322 179.132C90.325 175.663 86.3517 173.802 81.542 173.751C78.2355 173.714 75.4418 174.562 74.9003 174.801C73.7598 174.517 72.5165 174.342 71.1629 174.32C68.6807 174.279 66.535 174.875 64.7586 176.09C63.987 175.802 61.9929 175.116 59.5541 174.722C55.338 174.041 51.9876 174.557 49.5967 176.255C46.7439 178.282 45.4268 181.905 45.6819 187.023C45.7678 188.745 46.7463 194.043 48.2904 199.116C50.3229 205.793 52.5324 209.573 54.857 210.35C55.1291 210.441 55.4428 210.505 55.7888 210.505C56.6368 210.505 57.6765 210.122 58.7582 208.818C60.0776 207.23 61.4424 205.682 62.851 204.174C63.7648 204.666 64.7687 204.94 65.7955 204.968C65.7975 204.995 65.8002 205.022 65.8026 205.048C65.6258 205.26 65.4528 205.474 65.2834 205.691C64.572 206.597 64.4239 206.786 62.1339 207.258C61.4824 207.393 59.7523 207.751 59.7268 208.967C59.6994 210.296 61.7721 210.854 62.0082 210.913C62.8312 211.12 63.624 211.222 64.3801 211.222C66.2189 211.222 67.8371 210.615 69.1303 209.443C69.0905 214.18 69.2875 218.848 69.8547 220.27C70.3193 221.434 71.4541 224.279 75.0388 224.279C75.5649 224.279 76.1438 224.218 76.7807 224.081C80.5219 223.277 82.1466 221.619 82.775 217.963C83.1114 216.009 83.6885 211.344 83.96 208.842C84.5329 209.021 85.2704 209.103 86.0676 209.103C87.7305 209.103 89.6493 208.749 90.8526 208.189C92.2044 207.559 94.6438 206.014 94.2014 204.672ZM85.292 187.763C85.2796 188.501 85.1782 189.172 85.0708 189.872C84.955 190.625 84.8354 191.403 84.8054 192.348C84.7757 193.268 84.8902 194.224 85.0009 195.149C85.2247 197.016 85.4544 198.939 84.5654 200.836C84.4177 200.574 84.2862 200.303 84.1715 200.024C84.061 199.755 83.821 199.324 83.4887 198.727C82.1961 196.402 79.1691 190.959 80.7187 188.738C81.1803 188.076 82.3517 187.397 85.292 187.763ZM81.7279 175.247C86.0373 175.342 89.4463 176.959 91.8598 180.052C93.7109 182.424 91.6726 193.218 85.7715 202.53C85.7122 202.454 85.6525 202.378 85.5925 202.303L85.5178 202.21C87.0427 199.684 86.7446 197.186 86.4791 194.971C86.37 194.062 86.267 193.203 86.2933 192.396C86.3204 191.542 86.4331 190.808 86.5421 190.099C86.6761 189.226 86.8124 188.322 86.7749 187.256C86.8029 187.144 86.8142 187.012 86.7995 186.855C86.7035 185.833 85.54 182.775 83.1685 180.007C81.8713 178.493 79.9796 176.798 77.3966 175.655C78.5076 175.425 80.0268 175.209 81.7279 175.247ZM57.6135 207.863C56.4217 209.3 55.5987 209.025 55.3281 208.934C53.5646 208.344 51.5183 204.607 49.7143 198.68C48.1532 193.552 47.241 188.395 47.1687 186.949C46.9408 182.375 48.0464 179.188 50.4548 177.475C54.3744 174.688 60.8186 176.356 63.4081 177.202C63.3709 177.239 63.3321 177.273 63.2954 177.311C59.0461 181.614 59.1469 188.966 59.1574 189.416C59.157 189.589 59.1715 189.835 59.1913 190.172C59.2644 191.409 59.4006 193.71 59.037 196.317C58.6992 198.739 59.4438 201.109 61.0794 202.821C61.2473 202.996 61.4237 203.163 61.608 203.321C60.88 204.102 59.2978 205.831 57.6135 207.863ZM62.1543 201.788C60.836 200.408 60.2373 198.49 60.5114 196.523C60.8952 193.77 60.7536 191.372 60.6774 190.084C60.6667 189.904 60.6572 189.746 60.6518 189.621C61.2725 189.069 64.1492 187.524 66.2007 187.995C67.1368 188.21 67.7072 188.849 67.9444 189.949C69.1717 195.641 68.1068 198.014 67.2511 199.92C67.0748 200.313 66.9081 200.684 66.7659 201.068L66.6556 201.365C66.3765 202.116 66.1167 202.814 65.9557 203.477C64.5542 203.473 63.1909 202.872 62.1543 201.788V201.788ZM62.3694 209.465C61.9601 209.362 61.5921 209.184 61.3762 209.037C61.5565 208.951 61.8775 208.836 62.4342 208.721C65.1283 208.165 65.5444 207.772 66.453 206.615C66.6613 206.35 66.8974 206.049 67.2245 205.683L67.2249 205.683C67.7119 205.136 67.9347 205.228 68.3387 205.397C68.6661 205.532 68.9851 205.944 69.1144 206.397C69.1756 206.611 69.2443 207.017 69.0194 207.333C67.1214 209.997 64.3557 209.963 62.3694 209.465ZM76.4688 222.621C73.173 223.329 72.006 221.643 71.237 219.715C70.7407 218.471 70.4967 212.859 70.6698 206.661C70.672 206.579 70.6603 206.499 70.6377 206.424C70.6174 206.276 70.5866 206.13 70.5455 205.986C70.2882 205.084 69.661 204.33 68.9085 204.017C68.6096 203.893 68.0609 203.665 67.4016 203.834C67.5422 203.253 67.786 202.597 68.0504 201.887L68.1613 201.588C68.2862 201.251 68.4429 200.902 68.6086 200.533C69.504 198.538 70.7304 195.806 69.3994 189.633C68.9009 187.321 67.236 186.192 64.7122 186.454C63.1992 186.611 61.8149 187.224 61.1245 187.575C60.976 187.65 60.8402 187.723 60.7134 187.794C60.9061 185.464 61.6341 181.111 64.3575 178.357C66.0723 176.623 68.3559 175.766 71.1382 175.812C76.6205 175.902 80.1361 178.724 82.1202 181.075C83.8299 183.1 84.7557 185.141 85.1251 186.242C82.3466 185.959 80.4569 186.509 79.499 187.882C77.415 190.869 80.6391 196.667 82.1886 199.454C82.4729 199.965 82.7181 200.406 82.7952 200.593C83.2998 201.82 83.9531 202.639 84.43 203.236C84.5763 203.419 84.7181 203.597 84.826 203.752C83.9844 203.995 82.4729 204.557 82.6106 207.367C82.4995 208.777 81.7095 215.377 81.3081 217.71C80.7783 220.79 79.6477 221.938 76.4688 222.622V222.621ZM90.2258 206.835C89.3653 207.235 87.9252 207.536 86.5573 207.6C85.0463 207.671 84.2771 207.43 84.0961 207.282C84.0113 205.531 84.6611 205.349 85.3489 205.155C85.457 205.125 85.5624 205.095 85.6643 205.059C85.7275 205.111 85.7968 205.162 85.8727 205.212C87.0871 206.016 89.2532 206.103 92.3113 205.47L92.3448 205.463C91.9323 205.85 91.2265 206.369 90.2258 206.835Z" fill="white"/>
<defs>
<filter id="filter0_d_312_1529" x="92.4706" y="84.973" width="138.983" height="138.983" filterUnits="userSpaceOnUse" color-interpolation-filters="sRGB">
<feFlood flood-opacity="0" result="BackgroundImageFix"/>
<feColorMatrix in="SourceAlpha" type="matrix" values="0 0 0 0 0 0 0 0 0 0 0 0 0 0 0 0 0 0 127 0" result="hardAlpha"/>
<feOffset dy="2.1382"/>
<feGaussianBlur stdDeviation="10.691"/>
<feComposite in2="hardAlpha" operator="out"/>
<feColorMatrix type="matrix" values="0 0 0 0 0.0367917 0 0 0 0 0.0348958 0 0 0 0 0.0484375 0 0 0 0.1 0"/>
<feBlend mode="normal" in2="BackgroundImageFix" result="effect1_dropShadow_312_1529"/>
<feBlend mode="normal" in="SourceGraphic" in2="effect1_dropShadow_312_1529" result="shape"/>
</filter>
<filter id="filter1_d_312_1529" x="17.4706" y="0.973035" width="138.983" height="138.983" filterUnits="userSpaceOnUse" color-interpolation-filters="sRGB">
<feFlood flood-opacity="0" result="BackgroundImageFix"/>
<feColorMatrix in="SourceAlpha" type="matrix" values="0 0 0 0 0 0 0 0 0 0 0 0 0 0 0 0 0 0 127 0" result="hardAlpha"/>
<feOffset dy="2.1382"/>
<feGaussianBlur stdDeviation="10.691"/>
<feComposite in2="hardAlpha" operator="out"/>
<feColorMatrix type="matrix" values="0 0 0 0 0.0367917 0 0 0 0 0.0348958 0 0 0 0 0.0484375 0 0 0 0.1 0"/>
<feBlend mode="normal" in2="BackgroundImageFix" result="effect1_dropShadow_312_1529"/>
<feBlend mode="normal" in="SourceGraphic" in2="effect1_dropShadow_312_1529" result="shape"/>
</filter>
<filter id="filter2_d_312_1529" x="194.802" y="46.973" width="138.983" height="138.983" filterUnits="userSpaceOnUse" color-interpolation-filters="sRGB">
<feFlood flood-opacity="0" result="BackgroundImageFix"/>
<feColorMatrix in="SourceAlpha" type="matrix" values="0 0 0 0 0 0 0 0 0 0 0 0 0 0 0 0 0 0 127 0" result="hardAlpha"/>
<feOffset dy="2.1382"/>
<feGaussianBlur stdDeviation="10.691"/>
<feComposite in2="hardAlpha" operator="out"/>
<feColorMatrix type="matrix" values="0 0 0 0 0.0367917 0 0 0 0 0.0348958 0 0 0 0 0.0484375 0 0 0 0.1 0"/>
<feBlend mode="normal" in2="BackgroundImageFix" result="effect1_dropShadow_312_1529"/>
<feBlend mode="normal" in="SourceGraphic" in2="effect1_dropShadow_312_1529" result="shape"/>
</filter>
<filter id="filter3_d_312_1529" x="0.8573" y="131.973" width="138.983" height="138.983" filterUnits="userSpaceOnUse" color-interpolation-filters="sRGB">
<feFlood flood-opacity="0" result="BackgroundImageFix"/>
<feColorMatrix in="SourceAlpha" type="matrix" values="0 0 0 0 0 0 0 0 0 0 0 0 0 0 0 0 0 0 127 0" result="hardAlpha"/>
<feOffset dy="2.1382"/>
<feGaussianBlur stdDeviation="10.691"/>
<feComposite in2="hardAlpha" operator="out"/>
<feColorMatrix type="matrix" values="0 0 0 0 0.0367917 0 0 0 0 0.0348958 0 0 0 0 0.0484375 0 0 0 0.1 0"/>
<feBlend mode="normal" in2="BackgroundImageFix" result="effect1_dropShadow_312_1529"/>
<feBlend mode="normal" in="SourceGraphic" in2="effect1_dropShadow_312_1529" result="shape"/>
</filter>
<radialGradient id="paint0_radial_312_1529" cx="0" cy="0" r="1" gradientUnits="userSpaceOnUse" gradientTransform="translate(115.272 200.436) rotate(-45.3341) scale(237.589 418.368)">
<stop stop-color="#000A32"/>
<stop offset="0.28125" stop-color="#002659"/>
<stop offset="1" stop-color="#00FBFC"/>
</radialGradient>
<radialGradient id="paint1_radial_312_1529" cx="0" cy="0" r="1" gradientUnits="userSpaceOnUse" gradientTransform="translate(40.2724 116.436) rotate(-45.3341) scale(237.589 418.368)">
<stop stop-color="#000A32"/>
<stop offset="0.28125" stop-color="#002659"/>
<stop offset="1" stop-color="#00FBFC"/>
</radialGradient>
<radialGradient id="paint2_radial_312_1529" cx="0" cy="0" r="1" gradientUnits="userSpaceOnUse" gradientTransform="translate(217.603 162.436) rotate(-45.3341) scale(237.589 418.368)">
<stop stop-color="#000A32"/>
<stop offset="0.28125" stop-color="#002659"/>
<stop offset="1" stop-color="#00FBFC"/>
</radialGradient>
<radialGradient id="paint3_radial_312_1529" cx="0" cy="0" r="1" gradientUnits="userSpaceOnUse" gradientTransform="translate(23.6591 247.436) rotate(-45.3341) scale(237.589 418.368)">
<stop stop-color="#000A32"/>
<stop offset="0.28125" stop-color="#002659"/>
<stop offset="1" stop-color="#00FBFC"/>
</radialGradient>
</defs>
</svg>
