<svg width="334" height="270" viewBox="0 0 334 270" fill="none" xmlns="http://www.w3.org/2000/svg">
<g filter="url(#filter0_d_317_744)">
<rect x="21.8525" y="19.2168" width="96.0907" height="96.0907" rx="17.0828" fill="url(#paint0_radial_317_744)"/>
<rect x="22.1195" y="19.4837" width="95.5569" height="95.5569" rx="16.8159" stroke="black" stroke-width="0.533837"/>
</g>
<path d="M63.0008 81.5794C63.0008 81.5794 60.9627 82.7646 64.4512 83.1656C68.6775 83.6477 70.8374 83.5786 75.4948 82.6971C75.4948 82.6971 76.7193 83.4648 78.4292 84.1299C67.9888 88.6045 54.8002 83.8707 63.0008 81.5794ZM61.7249 75.7402C61.7249 75.7402 59.4391 77.4323 62.9302 77.7934C67.4448 78.2591 71.01 78.2972 77.1794 77.1093C77.1794 77.1093 78.0327 77.9744 79.3744 78.4475C66.7511 82.1387 52.6911 78.7386 61.7249 75.7402Z" fill="white"/>
<path d="M72.4802 65.8348C75.0528 68.7965 71.8043 71.4618 71.8043 71.4618C71.8043 71.4618 78.3364 68.0897 75.3365 63.867C72.5347 59.9293 70.386 57.9725 82.0179 51.2266C82.0179 51.2266 63.7597 55.7866 72.4802 65.8346" fill="#E76F00"/>
<path d="M86.2885 85.8973C86.2885 85.8973 87.7967 87.1399 84.6274 88.1013C78.6011 89.927 59.5449 90.4783 54.2511 88.174C52.3482 87.3463 55.9168 86.1974 57.0393 85.9562C58.2099 85.7024 58.879 85.7498 58.879 85.7498C56.7627 84.2589 45.2001 88.6771 53.0059 89.9423C74.293 93.3945 91.8101 88.3879 86.2885 85.8973ZM63.9806 69.6891C63.9806 69.6891 54.2875 71.9915 60.5481 72.8273C63.1915 73.1813 68.461 73.1013 73.3695 72.6899C77.381 72.3517 81.409 71.6321 81.409 71.6321C81.409 71.6321 79.9946 72.2379 78.9712 72.9367C69.128 75.5255 50.1125 74.3212 55.5868 71.6731C60.2164 69.4352 63.9807 69.6891 63.9807 69.6891H63.9806ZM81.369 79.4086C91.3754 74.2089 86.7488 69.2122 83.5196 69.8855C82.7281 70.0501 82.3752 70.1928 82.3752 70.1928C82.3752 70.1928 82.6691 69.7326 83.2303 69.5334C89.6186 67.2874 94.5317 76.1576 81.168 79.6706C81.168 79.6708 81.3229 79.5324 81.369 79.4086Z" fill="white"/>
<path d="M75.3363 40.3332C75.3363 40.3332 80.8779 45.8768 70.0803 54.4009C61.4219 61.2388 68.1059 65.1376 70.0768 69.5921C65.0227 65.0322 61.3135 61.0179 63.802 57.2819C67.4541 51.7974 77.5721 49.1384 75.3363 40.333" fill="#E76F00"/>
<path d="M64.964 93.4991C74.5687 94.114 89.3177 93.1579 89.667 88.6133C89.667 88.6133 88.9956 90.3363 81.7292 91.7044C73.5314 93.247 63.4207 93.067 57.4238 92.0783C57.424 92.0783 58.6515 93.0943 64.9641 93.4991" fill="white"/>
<g filter="url(#filter1_d_317_744)">
<rect x="145.183" y="43" width="96.0907" height="96.0907" rx="17.0828" fill="url(#paint1_radial_317_744)"/>
<rect x="145.45" y="43.2669" width="95.5569" height="95.5569" rx="16.8159" stroke="black" stroke-width="0.533837"/>
</g>
<path d="M166.354 64.3535H219.737V117.737H166.354V64.3535Z" fill="#CC0000"/>
<path d="M192.864 70.0859H172.087V112.001H192.862V80.6559H203.432V112.001H214.002V70.0859H192.864Z" fill="white"/>
<g filter="url(#filter2_d_317_744)">
<rect x="97.0361" y="131.217" width="96.0907" height="96.0907" rx="17.0828" fill="url(#paint2_radial_317_744)"/>
<rect x="97.3031" y="131.484" width="95.5569" height="95.5569" rx="16.8159" stroke="black" stroke-width="0.533837"/>
</g>
<path d="M171.737 152.354H145.157L119.775 179.045H144.999L145.117 178.925L171.737 152.354Z" fill="url(#paint3_linear_317_744)"/>
<path d="M171.737 205.738H118.354H171.737ZM145.117 178.926L144.999 179.046H145.237L145.117 178.926Z" fill="url(#paint4_linear_317_744)"/>
<path d="M145.157 152.354H118.354V180.54V179.045H119.775L145.157 152.354Z" fill="url(#paint5_linear_317_744)"/>
<path d="M144.999 179.045H119.775L118.354 180.54V205.737L144.999 179.045Z" fill="url(#paint6_linear_317_744)"/>
<path d="M145.237 179.045H144.999L118.354 205.737H171.737L145.237 179.045Z" fill="url(#paint7_linear_317_744)"/>
<path d="M119.775 179.045H118.354V180.54L119.775 179.045Z" fill="url(#paint8_linear_317_744)"/>
<g filter="url(#filter3_d_317_744)">
<rect x="215.944" y="150.217" width="96.0907" height="96.0907" rx="17.0828" fill="url(#paint9_radial_317_744)"/>
<rect x="216.211" y="150.484" width="95.5569" height="95.5569" rx="16.8159" stroke="black" stroke-width="0.533837"/>
</g>
<path d="M263.853 171.492C250.301 171.492 251.147 177.369 251.147 177.369L251.162 183.458H264.095V185.286H246.026C246.026 185.286 237.354 184.302 237.354 197.976C237.354 211.651 244.923 211.166 244.923 211.166H249.44V204.82C249.44 204.82 249.196 197.251 256.888 197.251H269.715C269.715 197.251 276.921 197.368 276.921 190.286V178.578C276.921 178.578 278.016 171.492 263.853 171.492ZM256.722 175.587C257.028 175.586 257.33 175.646 257.613 175.763C257.895 175.88 258.152 176.051 258.368 176.268C258.584 176.484 258.755 176.74 258.872 177.023C258.989 177.305 259.049 177.608 259.049 177.913C259.049 178.219 258.989 178.522 258.872 178.804C258.755 179.086 258.584 179.343 258.368 179.559C258.152 179.775 257.895 179.947 257.613 180.063C257.33 180.18 257.028 180.24 256.722 180.24C256.416 180.24 256.114 180.18 255.831 180.063C255.549 179.947 255.292 179.775 255.076 179.559C254.86 179.343 254.689 179.086 254.572 178.804C254.455 178.522 254.395 178.219 254.395 177.913C254.395 177.608 254.455 177.305 254.572 177.023C254.689 176.74 254.86 176.484 255.076 176.268C255.292 176.051 255.549 175.88 255.831 175.763C256.114 175.646 256.416 175.586 256.722 175.587Z" fill="url(#paint10_linear_317_744)"/>
<path d="M264.238 224.598C277.79 224.598 276.944 218.721 276.944 218.721L276.929 212.632H263.996V210.804H282.065C282.065 210.804 290.737 211.788 290.737 198.113C290.737 184.439 283.168 184.924 283.168 184.924H278.651V191.269C278.651 191.269 278.895 198.838 271.203 198.838H258.376C258.376 198.838 251.17 198.722 251.17 205.803V217.512C251.17 217.512 250.075 224.598 264.238 224.598H264.238ZM271.369 220.504C271.064 220.504 270.761 220.444 270.479 220.327C270.196 220.21 269.94 220.039 269.723 219.823C269.507 219.607 269.336 219.35 269.219 219.068C269.102 218.785 269.042 218.483 269.043 218.177C269.042 217.871 269.102 217.569 269.219 217.286C269.336 217.004 269.507 216.747 269.723 216.531C269.939 216.315 270.196 216.144 270.478 216.027C270.761 215.91 271.064 215.85 271.369 215.85C271.675 215.85 271.977 215.91 272.26 216.027C272.542 216.144 272.799 216.315 273.015 216.531C273.231 216.747 273.402 217.004 273.519 217.286C273.636 217.569 273.696 217.871 273.696 218.177C273.696 218.482 273.636 218.785 273.519 219.068C273.402 219.35 273.231 219.607 273.015 219.823C272.799 220.039 272.542 220.21 272.26 220.327C271.977 220.444 271.675 220.504 271.369 220.503V220.504Z" fill="url(#paint11_linear_317_744)"/>
<defs>
<filter id="filter0_d_317_744" x="0.499043" y="-0.00134993" width="138.798" height="138.797" filterUnits="userSpaceOnUse" color-interpolation-filters="sRGB">
<feFlood flood-opacity="0" result="BackgroundImageFix"/>
<feColorMatrix in="SourceAlpha" type="matrix" values="0 0 0 0 0 0 0 0 0 0 0 0 0 0 0 0 0 0 127 0" result="hardAlpha"/>
<feOffset dy="2.13535"/>
<feGaussianBlur stdDeviation="10.6767"/>
<feComposite in2="hardAlpha" operator="out"/>
<feColorMatrix type="matrix" values="0 0 0 0 0.0367917 0 0 0 0 0.0348958 0 0 0 0 0.0484375 0 0 0 0.1 0"/>
<feBlend mode="normal" in2="BackgroundImageFix" result="effect1_dropShadow_317_744"/>
<feBlend mode="normal" in="SourceGraphic" in2="effect1_dropShadow_317_744" result="shape"/>
</filter>
<filter id="filter1_d_317_744" x="123.83" y="23.7819" width="138.798" height="138.797" filterUnits="userSpaceOnUse" color-interpolation-filters="sRGB">
<feFlood flood-opacity="0" result="BackgroundImageFix"/>
<feColorMatrix in="SourceAlpha" type="matrix" values="0 0 0 0 0 0 0 0 0 0 0 0 0 0 0 0 0 0 127 0" result="hardAlpha"/>
<feOffset dy="2.13535"/>
<feGaussianBlur stdDeviation="10.6767"/>
<feComposite in2="hardAlpha" operator="out"/>
<feColorMatrix type="matrix" values="0 0 0 0 0.0367917 0 0 0 0 0.0348958 0 0 0 0 0.0484375 0 0 0 0.1 0"/>
<feBlend mode="normal" in2="BackgroundImageFix" result="effect1_dropShadow_317_744"/>
<feBlend mode="normal" in="SourceGraphic" in2="effect1_dropShadow_317_744" result="shape"/>
</filter>
<filter id="filter2_d_317_744" x="75.6826" y="111.999" width="138.798" height="138.797" filterUnits="userSpaceOnUse" color-interpolation-filters="sRGB">
<feFlood flood-opacity="0" result="BackgroundImageFix"/>
<feColorMatrix in="SourceAlpha" type="matrix" values="0 0 0 0 0 0 0 0 0 0 0 0 0 0 0 0 0 0 127 0" result="hardAlpha"/>
<feOffset dy="2.13535"/>
<feGaussianBlur stdDeviation="10.6767"/>
<feComposite in2="hardAlpha" operator="out"/>
<feColorMatrix type="matrix" values="0 0 0 0 0.0367917 0 0 0 0 0.0348958 0 0 0 0 0.0484375 0 0 0 0.1 0"/>
<feBlend mode="normal" in2="BackgroundImageFix" result="effect1_dropShadow_317_744"/>
<feBlend mode="normal" in="SourceGraphic" in2="effect1_dropShadow_317_744" result="shape"/>
</filter>
<filter id="filter3_d_317_744" x="194.591" y="130.999" width="138.798" height="138.797" filterUnits="userSpaceOnUse" color-interpolation-filters="sRGB">
<feFlood flood-opacity="0" result="BackgroundImageFix"/>
<feColorMatrix in="SourceAlpha" type="matrix" values="0 0 0 0 0 0 0 0 0 0 0 0 0 0 0 0 0 0 127 0" result="hardAlpha"/>
<feOffset dy="2.13535"/>
<feGaussianBlur stdDeviation="10.6767"/>
<feComposite in2="hardAlpha" operator="out"/>
<feColorMatrix type="matrix" values="0 0 0 0 0.0367917 0 0 0 0 0.0348958 0 0 0 0 0.0484375 0 0 0 0.1 0"/>
<feBlend mode="normal" in2="BackgroundImageFix" result="effect1_dropShadow_317_744"/>
<feBlend mode="normal" in="SourceGraphic" in2="effect1_dropShadow_317_744" result="shape"/>
</filter>
<radialGradient id="paint0_radial_317_744" cx="0" cy="0" r="1" gradientUnits="userSpaceOnUse" gradientTransform="translate(23.2705 115.308) rotate(-45.3341) scale(237.273 417.811)">
<stop stop-color="#000A32"/>
<stop offset="0.28125" stop-color="#002659"/>
<stop offset="1" stop-color="#00FBFC"/>
</radialGradient>
<radialGradient id="paint1_radial_317_744" cx="0" cy="0" r="1" gradientUnits="userSpaceOnUse" gradientTransform="translate(146.601 139.091) rotate(-45.3341) scale(237.273 417.811)">
<stop stop-color="#000A32"/>
<stop offset="0.28125" stop-color="#002659"/>
<stop offset="1" stop-color="#00FBFC"/>
</radialGradient>
<radialGradient id="paint2_radial_317_744" cx="0" cy="0" r="1" gradientUnits="userSpaceOnUse" gradientTransform="translate(98.4541 227.308) rotate(-45.3341) scale(237.273 417.811)">
<stop stop-color="#000A32"/>
<stop offset="0.28125" stop-color="#002659"/>
<stop offset="1" stop-color="#00FBFC"/>
</radialGradient>
<linearGradient id="paint3_linear_317_744" x1="108.826" y1="201.139" x2="158.502" y2="151.463" gradientUnits="userSpaceOnUse">
<stop stop-color="#C757BC"/>
<stop offset="0.108" stop-color="#C757BC"/>
<stop offset="0.173" stop-color="#CD5CA9"/>
<stop offset="0.492" stop-color="#E8744F"/>
<stop offset="0.716" stop-color="#F88316"/>
<stop offset="0.823" stop-color="#FF8900"/>
<stop offset="1" stop-color="#FF8900"/>
</linearGradient>
<linearGradient id="paint4_linear_317_744" x1="135.599" y1="215.354" x2="159.812" y2="191.141" gradientUnits="userSpaceOnUse">
<stop stop-color="#00AFFF"/>
<stop offset="0.296" stop-color="#00AFFF"/>
<stop offset="0.694" stop-color="#5282FF"/>
<stop offset="1" stop-color="#945DFF"/>
</linearGradient>
<linearGradient id="paint5_linear_317_744" x1="117.79" y1="167.107" x2="134.776" y2="150.12" gradientUnits="userSpaceOnUse">
<stop stop-color="#00AFFF"/>
<stop offset="0.296" stop-color="#00AFFF"/>
<stop offset="0.694" stop-color="#5282FF"/>
<stop offset="1" stop-color="#945DFF"/>
</linearGradient>
<linearGradient id="paint6_linear_317_744" x1="109.124" y1="201.437" x2="158.8" y2="151.76" gradientUnits="userSpaceOnUse">
<stop stop-color="#AD4CA4"/>
<stop offset="0.108" stop-color="#AD4CA4"/>
<stop offset="0.173" stop-color="#B25093"/>
<stop offset="0.492" stop-color="#CA6545"/>
<stop offset="0.716" stop-color="#D87213"/>
<stop offset="0.823" stop-color="#DE7700"/>
<stop offset="1" stop-color="#DE7700"/>
</linearGradient>
<linearGradient id="paint7_linear_317_744" x1="135.599" y1="215.353" x2="159.812" y2="191.14" gradientUnits="userSpaceOnUse">
<stop stop-color="#0098DE"/>
<stop offset="0.296" stop-color="#0098DE"/>
<stop offset="0.694" stop-color="#4771DE"/>
<stop offset="1" stop-color="#8151DE"/>
</linearGradient>
<linearGradient id="paint8_linear_317_744" x1="124.466" y1="173.782" x2="141.452" y2="156.795" gradientUnits="userSpaceOnUse">
<stop stop-color="#0098DE"/>
<stop offset="0.296" stop-color="#0098DE"/>
<stop offset="0.694" stop-color="#4771DE"/>
<stop offset="1" stop-color="#8151DE"/>
</linearGradient>
<radialGradient id="paint9_radial_317_744" cx="0" cy="0" r="1" gradientUnits="userSpaceOnUse" gradientTransform="translate(217.362 246.308) rotate(-45.3341) scale(237.273 417.811)">
<stop stop-color="#000A32"/>
<stop offset="0.28125" stop-color="#002659"/>
<stop offset="1" stop-color="#00FBFC"/>
</radialGradient>
<linearGradient id="paint10_linear_317_744" x1="242.484" y1="176.269" x2="268.939" y2="202.46" gradientUnits="userSpaceOnUse">
<stop stop-color="#387EB8"/>
<stop offset="1" stop-color="#366994"/>
</linearGradient>
<linearGradient id="paint11_linear_317_744" x1="258.722" y1="193.087" x2="287.132" y2="219.944" gradientUnits="userSpaceOnUse">
<stop stop-color="#FFE052"/>
<stop offset="1" stop-color="#FFC331"/>
</linearGradient>
</defs>
</svg>
