<svg width="345" height="396" viewBox="0 0 345 396" fill="none" xmlns="http://www.w3.org/2000/svg">
<g filter="url(#filter0_d_317_803)">
<rect x="157.944" y="228.217" width="96.0907" height="96.0907" rx="17.0828" fill="url(#paint0_radial_317_803)"/>
<rect x="158.211" y="228.484" width="95.5569" height="95.5569" rx="16.8159" stroke="black" stroke-width="0.533837"/>
</g>
<path d="M206.045 260.035C198.927 260.035 194.479 263.593 192.699 270.709C195.369 267.151 198.483 265.817 202.041 266.706C204.072 267.213 205.523 268.687 207.13 270.317C209.747 272.972 212.776 276.046 219.392 276.046C226.509 276.046 230.958 272.488 232.737 265.372C230.068 268.93 226.954 270.264 223.395 269.375C221.365 268.867 219.914 267.394 218.307 265.764C215.69 263.109 212.661 260.035 206.045 260.035ZM192.699 276.046C185.582 276.046 181.133 279.604 179.354 286.72C182.022 283.162 185.136 281.827 188.696 282.717C190.726 283.225 192.177 284.698 193.784 286.327C196.401 288.983 199.43 292.057 206.045 292.057C213.163 292.057 217.612 288.499 219.392 281.383C216.722 284.941 213.608 286.275 210.049 285.385C208.019 284.879 206.567 283.405 204.961 281.775C202.344 279.12 199.315 276.046 192.699 276.046Z" fill="#06B6D4"/>
<g filter="url(#filter1_d_317_803)">
<rect x="63.1831" y="276.217" width="96.0907" height="96.0907" rx="17.0828" fill="url(#paint1_radial_317_803)"/>
<rect x="63.45" y="276.484" width="95.5569" height="95.5569" rx="16.8159" stroke="black" stroke-width="0.533837"/>
</g>
<path d="M84.3535 297.354H137.737V350.737H84.3535V297.354Z" fill="#017ACB"/>
<path d="M109.986 317.122H112.547V321.543H105.624V341.212L105.44 341.262C105.19 341.328 101.895 341.328 101.186 341.253L100.619 341.203V321.543H93.6958V317.122L95.8895 317.097C97.0907 317.08 100.177 317.08 102.746 317.097C105.315 317.114 108.568 317.122 109.986 317.122ZM129.53 339.126C128.512 340.202 127.419 340.803 125.601 341.295C124.809 341.512 124.675 341.52 122.89 341.512C121.105 341.504 120.963 341.504 120.096 341.278C117.852 340.703 116.042 339.577 114.807 337.984C114.457 337.533 113.882 336.599 113.882 336.482C113.882 336.449 113.965 336.374 114.073 336.324C114.182 336.274 114.407 336.132 114.591 336.023C114.774 335.915 115.108 335.715 115.333 335.598C115.558 335.481 116.209 335.097 116.776 334.755C117.343 334.414 117.86 334.138 117.919 334.138C117.977 334.138 118.086 334.255 118.169 334.397C118.669 335.239 119.837 336.315 120.663 336.682C121.172 336.899 122.298 337.141 122.84 337.141C123.341 337.141 124.258 336.924 124.75 336.699C125.276 336.457 125.543 336.215 125.86 335.731C126.076 335.389 126.101 335.298 126.093 334.647C126.093 334.046 126.06 333.88 125.893 333.604C125.426 332.837 124.792 332.437 122.223 331.302C119.57 330.126 118.377 329.425 117.41 328.483C116.693 327.782 116.551 327.59 116.1 326.715C115.516 325.589 115.441 325.221 115.433 323.545C115.425 322.369 115.45 321.985 115.575 321.585C115.75 320.984 116.317 319.825 116.576 319.533C117.11 318.907 117.301 318.715 117.677 318.407C118.811 317.473 120.58 316.855 122.273 316.797C122.465 316.797 123.099 316.83 123.691 316.872C125.392 317.014 126.552 317.431 127.67 318.323C128.512 318.991 129.788 320.559 129.663 320.767C129.58 320.892 126.252 323.111 126.035 323.178C125.901 323.22 125.81 323.17 125.626 322.953C124.492 321.593 124.033 321.301 122.932 321.234C122.148 321.184 121.731 321.276 121.205 321.626C120.655 321.993 120.388 322.552 120.388 323.328C120.396 324.462 120.83 324.996 122.431 325.789C123.466 326.298 124.35 326.715 124.417 326.715C124.517 326.715 126.66 327.782 127.219 328.116C129.822 329.642 130.881 331.21 131.156 333.913C131.356 335.948 130.781 337.808 129.53 339.126Z" fill="white"/>
<g filter="url(#filter2_d_317_803)">
<rect x="22" y="20" width="96.0907" height="96.0907" rx="17.0828" fill="url(#paint2_radial_317_803)"/>
<rect x="22.2669" y="20.2669" width="95.5569" height="95.5569" rx="16.8159" stroke="black" stroke-width="0.533837"/>
</g>
<path d="M50.789 89.4171L46.5068 41.3535H93.5842L89.3021 89.3911L70.0066 94.7373" fill="#E44D26"/>
<path d="M70.0454 90.6504V45.2988H89.289L85.6168 86.3034" fill="#F16529"/>
<path d="M55.2529 51.1758H70.0457V57.0669H61.715L62.26 63.1008H70.0457V68.979H56.862L55.2529 51.1758ZM57.1215 71.9376H63.0386L63.4538 76.6479L70.0457 78.4126V84.5633L57.952 81.1895" fill="#EBEBEB"/>
<path d="M84.7864 51.1758H70.0195V57.0669H84.2414L84.7864 51.1758ZM83.7093 63.1008H70.0195V68.992H77.2862L76.5984 76.6479L70.0195 78.4127V84.5374L82.0873 81.1895" fill="white"/>
<g filter="url(#filter3_d_317_803)">
<rect x="107.797" y="65" width="96.0907" height="96.0907" rx="17.0828" fill="url(#paint3_radial_317_803)"/>
<rect x="108.064" y="65.2669" width="95.5569" height="95.5569" rx="16.8159" stroke="black" stroke-width="0.533837"/>
</g>
<path d="M179.581 86.3535L175.293 134.393L156.016 139.737L136.794 134.401L132.51 86.3535H179.581Z" fill="#264DE4"/>
<path d="M171.621 131.333L175.286 90.2812H156.045V135.652L171.621 131.333Z" fill="#2965F1"/>
<path d="M142.33 108.102L142.858 113.994H156.045V108.102H142.33Z" fill="#EBEBEB"/>
<path d="M156.045 96.1758H156.025H141.269L141.805 102.069H156.045V96.1758Z" fill="#EBEBEB"/>
<path d="M156.045 129.537V123.406L156.019 123.413L149.457 121.641L149.037 116.941H145.848H143.122L143.947 126.194L156.018 129.545L156.045 129.537Z" fill="#EBEBEB"/>
<path d="M163.281 113.996L162.597 121.638L156.025 123.412V129.543L168.105 126.195L168.194 125.199L169.579 109.685L169.723 108.103L170.786 96.1758H156.025V102.069H164.328L163.792 108.103H156.025V113.996H163.281Z" fill="white"/>
<g filter="url(#filter4_d_317_803)">
<rect x="40.8525" y="164.217" width="96.0907" height="96.0907" rx="17.0828" fill="url(#paint4_radial_317_803)"/>
<rect x="41.1195" y="164.484" width="95.5569" height="95.5569" rx="16.8159" stroke="black" stroke-width="0.533837"/>
</g>
<path fill-rule="evenodd" clip-rule="evenodd" d="M67.5713 221.996C67.0282 221.139 67.02 220.048 67.5502 219.183L87.5112 186.623C88.6215 184.812 91.3023 184.97 92.1917 186.899L110.427 226.456C111.104 227.924 110.325 229.651 108.777 230.115L80.4102 238.625C79.2689 238.967 78.0391 238.508 77.4012 237.502L67.5713 221.996ZM89.8143 196.143C90.0067 195.185 91.3191 195.047 91.7067 195.944L104.285 225.05C104.522 225.598 104.227 226.23 103.655 226.401L84.0562 232.251C83.3358 232.466 82.6457 231.837 82.7937 231.1L89.8143 196.143Z" fill="white"/>
<g filter="url(#filter5_d_317_803)">
<rect x="208.853" y="27.2168" width="96.0907" height="96.0907" rx="17.0828" fill="url(#paint5_radial_317_803)"/>
<rect x="209.119" y="27.4837" width="95.5569" height="95.5569" rx="16.8159" stroke="black" stroke-width="0.533837"/>
</g>
<g clip-path="url(#clip0_317_803)">
<path d="M257.045 101.737C271.787 101.737 283.737 89.7869 283.737 75.0454C283.737 60.3039 271.787 48.3535 257.045 48.3535C242.304 48.3535 230.354 60.3039 230.354 75.0454C230.354 89.7869 242.304 101.737 257.045 101.737Z" fill="black"/>
<path d="M274.694 95.0709L250.859 64.3691H246.369V85.7138H249.961V68.9315L271.874 97.2432C272.863 96.5814 273.805 95.8553 274.694 95.0709Z" fill="url(#paint6_linear_317_803)"/>
<path d="M268.019 64.3691H264.46V85.7226H268.019V64.3691Z" fill="url(#paint7_linear_317_803)"/>
</g>
<g filter="url(#filter6_d_317_803)">
<rect x="227" y="140" width="96.0907" height="96.0907" rx="17.0828" fill="url(#paint8_radial_317_803)"/>
<rect x="227.267" y="140.267" width="95.5569" height="95.5569" rx="16.8159" stroke="black" stroke-width="0.533837"/>
</g>
<path d="M275.254 192.399C277.854 192.399 279.961 190.292 279.961 187.693C279.961 185.093 277.854 182.986 275.254 182.986C272.655 182.986 270.548 185.093 270.548 187.693C270.548 190.292 272.655 192.399 275.254 192.399Z" fill="#61DAFB"/>
<path d="M275.254 197.334C289.201 197.334 300.508 193.017 300.508 187.691C300.508 182.366 289.201 178.049 275.254 178.049C261.307 178.049 250 182.366 250 187.691C250 193.017 261.307 197.334 275.254 197.334Z" stroke="#61DAFB" stroke-width="2.66919"/>
<path d="M266.903 192.513C273.877 204.592 283.269 212.225 287.881 209.563C292.493 206.9 290.578 194.949 283.605 182.871C276.631 170.792 267.239 163.159 262.627 165.821C258.015 168.484 259.93 180.434 266.903 192.513Z" stroke="#61DAFB" stroke-width="2.66919"/>
<path d="M266.903 182.871C259.929 194.95 258.015 206.9 262.627 209.563C267.239 212.225 276.631 204.592 283.604 192.513C290.578 180.434 292.493 168.484 287.881 165.821C283.269 163.159 273.877 170.792 266.903 182.871Z" stroke="#61DAFB" stroke-width="2.66919"/>
<defs>
<filter id="filter0_d_317_803" x="136.591" y="208.999" width="138.798" height="138.797" filterUnits="userSpaceOnUse" color-interpolation-filters="sRGB">
<feFlood flood-opacity="0" result="BackgroundImageFix"/>
<feColorMatrix in="SourceAlpha" type="matrix" values="0 0 0 0 0 0 0 0 0 0 0 0 0 0 0 0 0 0 127 0" result="hardAlpha"/>
<feOffset dy="2.13535"/>
<feGaussianBlur stdDeviation="10.6767"/>
<feComposite in2="hardAlpha" operator="out"/>
<feColorMatrix type="matrix" values="0 0 0 0 0.0367917 0 0 0 0 0.0348958 0 0 0 0 0.0484375 0 0 0 0.1 0"/>
<feBlend mode="normal" in2="BackgroundImageFix" result="effect1_dropShadow_317_803"/>
<feBlend mode="normal" in="SourceGraphic" in2="effect1_dropShadow_317_803" result="shape"/>
</filter>
<filter id="filter1_d_317_803" x="41.8296" y="256.999" width="138.798" height="138.797" filterUnits="userSpaceOnUse" color-interpolation-filters="sRGB">
<feFlood flood-opacity="0" result="BackgroundImageFix"/>
<feColorMatrix in="SourceAlpha" type="matrix" values="0 0 0 0 0 0 0 0 0 0 0 0 0 0 0 0 0 0 127 0" result="hardAlpha"/>
<feOffset dy="2.13535"/>
<feGaussianBlur stdDeviation="10.6767"/>
<feComposite in2="hardAlpha" operator="out"/>
<feColorMatrix type="matrix" values="0 0 0 0 0.0367917 0 0 0 0 0.0348958 0 0 0 0 0.0484375 0 0 0 0.1 0"/>
<feBlend mode="normal" in2="BackgroundImageFix" result="effect1_dropShadow_317_803"/>
<feBlend mode="normal" in="SourceGraphic" in2="effect1_dropShadow_317_803" result="shape"/>
</filter>
<filter id="filter2_d_317_803" x="0.646503" y="0.781853" width="138.798" height="138.797" filterUnits="userSpaceOnUse" color-interpolation-filters="sRGB">
<feFlood flood-opacity="0" result="BackgroundImageFix"/>
<feColorMatrix in="SourceAlpha" type="matrix" values="0 0 0 0 0 0 0 0 0 0 0 0 0 0 0 0 0 0 127 0" result="hardAlpha"/>
<feOffset dy="2.13535"/>
<feGaussianBlur stdDeviation="10.6767"/>
<feComposite in2="hardAlpha" operator="out"/>
<feColorMatrix type="matrix" values="0 0 0 0 0.0367917 0 0 0 0 0.0348958 0 0 0 0 0.0484375 0 0 0 0.1 0"/>
<feBlend mode="normal" in2="BackgroundImageFix" result="effect1_dropShadow_317_803"/>
<feBlend mode="normal" in="SourceGraphic" in2="effect1_dropShadow_317_803" result="shape"/>
</filter>
<filter id="filter3_d_317_803" x="86.4434" y="45.7819" width="138.798" height="138.797" filterUnits="userSpaceOnUse" color-interpolation-filters="sRGB">
<feFlood flood-opacity="0" result="BackgroundImageFix"/>
<feColorMatrix in="SourceAlpha" type="matrix" values="0 0 0 0 0 0 0 0 0 0 0 0 0 0 0 0 0 0 127 0" result="hardAlpha"/>
<feOffset dy="2.13535"/>
<feGaussianBlur stdDeviation="10.6767"/>
<feComposite in2="hardAlpha" operator="out"/>
<feColorMatrix type="matrix" values="0 0 0 0 0.0367917 0 0 0 0 0.0348958 0 0 0 0 0.0484375 0 0 0 0.1 0"/>
<feBlend mode="normal" in2="BackgroundImageFix" result="effect1_dropShadow_317_803"/>
<feBlend mode="normal" in="SourceGraphic" in2="effect1_dropShadow_317_803" result="shape"/>
</filter>
<filter id="filter4_d_317_803" x="19.499" y="144.999" width="138.798" height="138.797" filterUnits="userSpaceOnUse" color-interpolation-filters="sRGB">
<feFlood flood-opacity="0" result="BackgroundImageFix"/>
<feColorMatrix in="SourceAlpha" type="matrix" values="0 0 0 0 0 0 0 0 0 0 0 0 0 0 0 0 0 0 127 0" result="hardAlpha"/>
<feOffset dy="2.13535"/>
<feGaussianBlur stdDeviation="10.6767"/>
<feComposite in2="hardAlpha" operator="out"/>
<feColorMatrix type="matrix" values="0 0 0 0 0.0367917 0 0 0 0 0.0348958 0 0 0 0 0.0484375 0 0 0 0.1 0"/>
<feBlend mode="normal" in2="BackgroundImageFix" result="effect1_dropShadow_317_803"/>
<feBlend mode="normal" in="SourceGraphic" in2="effect1_dropShadow_317_803" result="shape"/>
</filter>
<filter id="filter5_d_317_803" x="187.499" y="7.99865" width="138.798" height="138.797" filterUnits="userSpaceOnUse" color-interpolation-filters="sRGB">
<feFlood flood-opacity="0" result="BackgroundImageFix"/>
<feColorMatrix in="SourceAlpha" type="matrix" values="0 0 0 0 0 0 0 0 0 0 0 0 0 0 0 0 0 0 127 0" result="hardAlpha"/>
<feOffset dy="2.13535"/>
<feGaussianBlur stdDeviation="10.6767"/>
<feComposite in2="hardAlpha" operator="out"/>
<feColorMatrix type="matrix" values="0 0 0 0 0.0367917 0 0 0 0 0.0348958 0 0 0 0 0.0484375 0 0 0 0.1 0"/>
<feBlend mode="normal" in2="BackgroundImageFix" result="effect1_dropShadow_317_803"/>
<feBlend mode="normal" in="SourceGraphic" in2="effect1_dropShadow_317_803" result="shape"/>
</filter>
<filter id="filter6_d_317_803" x="205.647" y="120.782" width="138.798" height="138.797" filterUnits="userSpaceOnUse" color-interpolation-filters="sRGB">
<feFlood flood-opacity="0" result="BackgroundImageFix"/>
<feColorMatrix in="SourceAlpha" type="matrix" values="0 0 0 0 0 0 0 0 0 0 0 0 0 0 0 0 0 0 127 0" result="hardAlpha"/>
<feOffset dy="2.13535"/>
<feGaussianBlur stdDeviation="10.6767"/>
<feComposite in2="hardAlpha" operator="out"/>
<feColorMatrix type="matrix" values="0 0 0 0 0.0367917 0 0 0 0 0.0348958 0 0 0 0 0.0484375 0 0 0 0.1 0"/>
<feBlend mode="normal" in2="BackgroundImageFix" result="effect1_dropShadow_317_803"/>
<feBlend mode="normal" in="SourceGraphic" in2="effect1_dropShadow_317_803" result="shape"/>
</filter>
<radialGradient id="paint0_radial_317_803" cx="0" cy="0" r="1" gradientUnits="userSpaceOnUse" gradientTransform="translate(159.362 324.308) rotate(-45.3341) scale(237.273 417.811)">
<stop stop-color="#000A32"/>
<stop offset="0.28125" stop-color="#002659"/>
<stop offset="1" stop-color="#00FBFC"/>
</radialGradient>
<radialGradient id="paint1_radial_317_803" cx="0" cy="0" r="1" gradientUnits="userSpaceOnUse" gradientTransform="translate(64.6011 372.308) rotate(-45.3341) scale(237.273 417.811)">
<stop stop-color="#000A32"/>
<stop offset="0.28125" stop-color="#002659"/>
<stop offset="1" stop-color="#00FBFC"/>
</radialGradient>
<radialGradient id="paint2_radial_317_803" cx="0" cy="0" r="1" gradientUnits="userSpaceOnUse" gradientTransform="translate(23.418 116.091) rotate(-45.3341) scale(237.273 417.811)">
<stop stop-color="#000A32"/>
<stop offset="0.28125" stop-color="#002659"/>
<stop offset="1" stop-color="#00FBFC"/>
</radialGradient>
<radialGradient id="paint3_radial_317_803" cx="0" cy="0" r="1" gradientUnits="userSpaceOnUse" gradientTransform="translate(109.215 161.091) rotate(-45.3341) scale(237.273 417.811)">
<stop stop-color="#000A32"/>
<stop offset="0.28125" stop-color="#002659"/>
<stop offset="1" stop-color="#00FBFC"/>
</radialGradient>
<radialGradient id="paint4_radial_317_803" cx="0" cy="0" r="1" gradientUnits="userSpaceOnUse" gradientTransform="translate(42.2705 260.308) rotate(-45.3341) scale(237.273 417.811)">
<stop stop-color="#000A32"/>
<stop offset="0.28125" stop-color="#002659"/>
<stop offset="1" stop-color="#00FBFC"/>
</radialGradient>
<radialGradient id="paint5_radial_317_803" cx="0" cy="0" r="1" gradientUnits="userSpaceOnUse" gradientTransform="translate(210.271 123.308) rotate(-45.3341) scale(237.273 417.811)">
<stop stop-color="#000A32"/>
<stop offset="0.28125" stop-color="#002659"/>
<stop offset="1" stop-color="#00FBFC"/>
</radialGradient>
<linearGradient id="paint6_linear_317_803" x1="262.68" y1="82.9052" x2="273.209" y2="95.9545" gradientUnits="userSpaceOnUse">
<stop stop-color="white"/>
<stop offset="1" stop-color="white" stop-opacity="0"/>
</linearGradient>
<linearGradient id="paint7_linear_317_803" x1="266.239" y1="64.3691" x2="266.18" y2="80.0507" gradientUnits="userSpaceOnUse">
<stop stop-color="white"/>
<stop offset="1" stop-color="white" stop-opacity="0"/>
</linearGradient>
<radialGradient id="paint8_radial_317_803" cx="0" cy="0" r="1" gradientUnits="userSpaceOnUse" gradientTransform="translate(228.418 236.091) rotate(-45.3341) scale(237.273 417.811)">
<stop stop-color="#000A32"/>
<stop offset="0.28125" stop-color="#002659"/>
<stop offset="1" stop-color="#00FBFC"/>
</radialGradient>
<clipPath id="clip0_317_803">
<rect width="53.3837" height="53.3837" fill="white" transform="translate(230.354 48.3535)"/>
</clipPath>
</defs>
</svg>
