<?xml version="1.0" encoding="UTF-8"?>
<svg id="Layer_2" data-name="Layer 2" xmlns="http://www.w3.org/2000/svg" xmlns:xlink="http://www.w3.org/1999/xlink" viewBox="0 0 96 96">
  <defs>
    <style>
      .cls-1 {
        fill: #fff;
      }

      .cls-2 {
        clip-path: url(#clippath);
      }

      .cls-3 {
        fill: none;
      }

      .cls-4 {
        fill: #ff1cf7;
      }
    </style>
    <clipPath id="clippath">
      <rect class="cls-3" width="96" height="96"/>
    </clipPath>
  </defs>
  <g id="Layer_1-2" data-name="Layer 1">
    <g class="cls-2">
      <g>
        <g>
          <path class="cls-4" d="m37.27,17.19c1.2-2.58,2.52-4.83,3.96-6.7C7.33,15.55-11.96,59.4,17.5,87.09-4.65,61.18,9.36,24.66,37.27,17.19Z"/>
          <path class="cls-4" d="m61.44,12.03c-2.14-.63-4.25-1.11-6.33-1.44,1.42,1.87,2.72,4.11,3.91,6.67.26.07.52.12.79.2,29.88,9.13,39.15,46.29,18.83,69.61,25.68-22.76,15.11-65.19-17.19-75.04Z"/>
        </g>
        <path class="cls-1" d="m48.89,6.19h-.02c-.25-.15-.53-.19-.75-.19s-.49.05-.75.19h-.02c-4.61,2.65-8.45,8.57-11.14,16.29-2.71,7.76-4.31,17.53-4.31,28.12s1.64,20.58,4.41,28.39c.18.5.52.9.98,1.11.44.21.92.22,1.34.1.84-.25,1.53-1.06,1.45-2.15-.13-1.59-.2-3.22-.2-4.9,0-6.28.95-12.03,2.53-16.55,1.51-4.34,3.54-7.4,5.71-8.82,2.17,1.42,4.21,4.48,5.72,8.82,1.57,4.52,2.52,10.27,2.52,16.56,0,1.67-.07,3.31-.2,4.9-.09,1.09.61,1.9,1.44,2.15.42.12.89.11,1.34-.1.46-.22.8-.61.98-1.11,2.77-7.81,4.41-17.68,4.41-28.4s-1.6-20.34-4.31-28.11c-2.69-7.72-6.53-13.63-11.14-16.28Zm-1.1,41.37h0s0,0,0,0Z"/>
        <path class="cls-1" d="m30.22,54l-15.99,24.09c-.85,1.28.83,2.67,2.55,2.13l15.12-4.77c.91-.29,1.4-1.05,1.19-1.79-1.79-5.9-2.81-12.58-2.85-19.67h-.02Z"/>
        <path class="cls-1" d="m65.92,54l15.99,24.09c.85,1.28-.83,2.67-2.55,2.13l-15.12-4.77c-.91-.29-1.4-1.05-1.19-1.79,1.79-5.9,2.81-12.58,2.85-19.67h.02Z"/>
      </g>
    </g>
  </g>
</svg>