<svg width="140" height="140" viewBox="0 0 140 140" fill="none" xmlns="http://www.w3.org/2000/svg">
<g filter="url(#filter0_d_317_787)">
<rect x="21.8525" y="20.2168" width="96.0907" height="96.0907" rx="17.0828" fill="url(#paint0_radial_317_787)"/>
<rect x="22.1195" y="20.4837" width="95.5569" height="95.5569" rx="16.8159" stroke="black" stroke-width="0.533837"/>
</g>
<path d="M93.0323 63.2075C93.6996 61.3724 93.8664 59.5374 93.6996 57.7023C93.5328 55.8672 92.8655 54.0322 92.0314 52.3639C90.53 49.8615 88.3612 47.8597 85.8589 46.6919C83.1897 45.5241 80.3537 45.1905 77.5177 45.8578C76.1831 44.5232 74.6817 43.3554 73.0134 42.5213C71.3452 41.6872 69.3433 41.3535 67.5082 41.3535C64.6722 41.3535 61.8362 42.1876 59.5007 43.8559C57.1651 45.5241 55.4969 47.8597 54.6628 50.5288C52.6609 51.0293 50.9926 51.8634 49.3244 52.8644C47.823 54.0322 46.6552 55.5336 45.6542 57.035C44.1528 59.5374 43.6524 62.3734 43.986 65.2094C44.3197 68.0454 45.4874 70.7146 47.3225 72.8833C46.6552 74.7184 46.4884 76.5534 46.6552 78.3885C46.822 80.2236 47.4893 82.0586 48.3234 83.7269C49.8249 86.2292 51.9936 88.2311 54.4959 89.3989C57.1651 90.5667 60.0011 90.9003 62.8371 90.233C64.1717 91.5676 65.6731 92.7354 67.3414 93.5695C69.0096 94.4036 71.0115 94.7373 72.8466 94.7373C75.6826 94.7373 78.5186 93.9031 80.8542 92.2349C83.1897 90.5667 84.8579 88.2311 85.6921 85.5619C87.5271 85.2283 89.3622 84.3942 90.8636 83.2264C92.365 82.0586 93.6996 80.724 94.5337 79.0558C96.0352 76.5534 96.5356 73.7174 96.202 70.8814C95.8683 68.0454 94.8674 65.3762 93.0323 63.2075ZM73.0134 91.234C70.3442 91.234 68.3423 90.3998 66.5073 88.8984C66.5073 88.8984 66.6741 88.7316 66.8409 88.7316L77.5177 82.5591C77.8513 82.3923 78.0181 82.2254 78.185 81.8918C78.3518 81.5581 78.3518 81.3913 78.3518 81.0577V66.0435L82.856 68.7127V81.0577C83.0229 86.8965 78.3518 91.234 73.0134 91.234ZM51.4931 82.0586C50.3253 80.0567 49.8249 77.7212 50.3253 75.3857C50.3253 75.3857 50.4921 75.5525 50.659 75.5525L61.3357 81.725C61.6694 81.8918 61.8362 81.8918 62.1698 81.8918C62.5035 81.8918 62.8371 81.8918 63.004 81.725L76.0163 74.2179V79.3894L65.1727 85.7288C62.8371 87.0633 60.168 87.397 57.6656 86.7297C54.9964 86.0624 52.8277 84.3942 51.4931 82.0586ZM48.6571 58.8701C49.8249 56.8682 51.6599 55.3667 53.8286 54.5326V54.8663V67.2113C53.8286 67.5449 53.8286 67.8786 53.9955 68.0454C54.1623 68.379 54.3291 68.5459 54.6628 68.7127L67.675 76.2198L63.1708 78.889L52.494 72.7165C50.1585 71.3819 48.4903 69.2132 47.823 66.7108C47.1557 64.2084 47.3225 61.2056 48.6571 58.8701ZM85.5252 67.3781L72.5129 59.871L77.0172 57.2018L87.6939 63.3743C89.3622 64.3753 90.6968 65.7098 91.5309 67.3781C92.365 69.0463 92.8655 70.8814 92.6987 72.8833C92.5318 74.7184 91.8645 76.5534 90.6968 78.0548C89.529 79.5563 88.0276 80.724 86.1925 81.3913V68.7127C86.1925 68.379 86.1925 68.0454 86.0257 67.8786C86.0257 67.8786 85.8589 67.5449 85.5252 67.3781ZM90.0295 60.7051C90.0295 60.7051 89.8627 60.5383 89.6958 60.5383L79.0191 54.3658C78.6854 54.199 78.5186 54.199 78.185 54.199C77.8513 54.199 77.5177 54.199 77.3508 54.3658L64.3386 61.8729V56.7013L75.1821 50.362C76.8504 49.3611 78.6854 49.0274 80.6873 49.0274C82.5224 49.0274 84.3575 49.6947 86.0257 50.8625C87.5271 52.0303 88.8617 53.5317 89.529 55.1999C90.1963 56.8682 90.3631 58.8701 90.0295 60.7051ZM62.003 70.0473L57.4988 67.3781V54.8663C57.4988 53.0312 57.9992 51.0293 59.0002 49.5279C60.0011 47.8597 61.5025 46.6919 63.1708 45.8578C64.839 45.0236 66.8409 44.69 68.676 45.0236C70.5111 45.1905 72.3461 46.0246 73.8475 47.1924C73.8475 47.1924 73.6807 47.3592 73.5139 47.3592L62.8371 53.5317C62.5035 53.6985 62.3367 53.8653 62.1698 54.199C62.003 54.5326 62.003 54.6995 62.003 55.0331V70.0473ZM64.3386 64.7089L70.1774 61.3724L76.0163 64.7089V71.3819L70.1774 74.7184L64.3386 71.3819V64.7089Z" fill="#FF8BFF"/>
<defs>
<filter id="filter0_d_317_787" x="0.499043" y="0.99865" width="138.798" height="138.797" filterUnits="userSpaceOnUse" color-interpolation-filters="sRGB">
<feFlood flood-opacity="0" result="BackgroundImageFix"/>
<feColorMatrix in="SourceAlpha" type="matrix" values="0 0 0 0 0 0 0 0 0 0 0 0 0 0 0 0 0 0 127 0" result="hardAlpha"/>
<feOffset dy="2.13535"/>
<feGaussianBlur stdDeviation="10.6767"/>
<feComposite in2="hardAlpha" operator="out"/>
<feColorMatrix type="matrix" values="0 0 0 0 0.0367917 0 0 0 0 0.0348958 0 0 0 0 0.0484375 0 0 0 0.1 0"/>
<feBlend mode="normal" in2="BackgroundImageFix" result="effect1_dropShadow_317_787"/>
<feBlend mode="normal" in="SourceGraphic" in2="effect1_dropShadow_317_787" result="shape"/>
</filter>
<radialGradient id="paint0_radial_317_787" cx="0" cy="0" r="1" gradientUnits="userSpaceOnUse" gradientTransform="translate(23.2705 116.308) rotate(-45.3341) scale(237.273 417.811)">
<stop stop-color="#000A32"/>
<stop offset="0.28125" stop-color="#002659"/>
<stop offset="1" stop-color="#00FBFC"/>
</radialGradient>
</defs>
</svg>
