<svg width="48" height="48" viewBox="0 0 48 48" fill="none" xmlns="http://www.w3.org/2000/svg">
<path d="M40.8107 6.975C36.3214 2.475 30.3429 0 23.9893 0C10.875 0 0.203571 10.6714 0.203571 23.7857C0.203571 27.975 1.29643 32.0679 3.375 35.6786L0 48L12.6107 44.6893C16.0821 46.5857 19.9929 47.5821 23.9786 47.5821H23.9893C37.0929 47.5821 48 36.9107 48 23.7964C48 17.4429 45.3 11.475 40.8107 6.975ZM23.9893 43.575C20.4321 43.575 16.95 42.6214 13.9179 40.8214L13.2 40.3929L5.72143 42.3536L7.71429 35.0571L7.24286 34.3071C5.26071 31.1571 4.22143 27.525 4.22143 23.7857C4.22143 12.8893 13.0929 4.01786 24 4.01786C29.2821 4.01786 34.2429 6.075 37.9714 9.81429C41.7 13.5536 43.9929 18.5143 43.9821 23.7964C43.9821 34.7036 34.8857 43.575 23.9893 43.575ZM34.8321 28.7679C34.2429 28.4679 31.3179 27.0321 30.7714 26.8393C30.225 26.6357 29.8286 26.5393 29.4321 27.1393C29.0357 27.7393 27.9 29.0679 27.5464 29.475C27.2036 29.8714 26.85 29.925 26.2607 29.625C22.7679 27.8786 20.475 26.5071 18.1714 22.5536C17.5607 21.5036 18.7821 21.5786 19.9179 19.3071C20.1107 18.9107 20.0143 18.5679 19.8643 18.2679C19.7143 17.9679 18.525 15.0429 18.0321 13.8536C17.55 12.6964 17.0571 12.8571 16.6929 12.8357C16.35 12.8143 15.9536 12.8143 15.5571 12.8143C15.1607 12.8143 14.5179 12.9643 13.9714 13.5536C13.425 14.1536 11.8929 15.5893 11.8929 18.5143C11.8929 21.4393 14.025 24.2679 14.3143 24.6643C14.6143 25.0607 18.5036 31.0607 24.4714 33.6429C28.2429 35.2714 29.7214 35.4107 31.6071 35.1321C32.7536 34.9607 35.1214 33.6964 35.6143 32.3036C36.1071 30.9107 36.1071 29.7214 35.9571 29.475C35.8179 29.2071 35.4214 29.0571 34.8321 28.7679Z" fill="white"/>
</svg>
